<svg width="662.9199951171875px" height="124.439990234375px" xmlns="http://www.w3.org/2000/svg" viewBox="-81.45999755859373 12.780004882812499 662.9199951171875 124.439990234375" style="background: rgba(0, 0, 0, 0) none repeat scroll 0% 0%;" preserveAspectRatio="xMidYMid"><defs><filter id="editing-extrusion" x="-100%" y="-100%" width="300%" height="300%"><feFlood result="color1" flood-color="#444"></feFlood><feConvolveMatrix order="8,8" divisor="1" kernelMatrix="1 0 0 0 0 0 0 0 0 1 0 0 0 0 0 0 0 0 1 0 0 0 0 0 0 0 0 1 0 0 0 0 0 0 0 0 1 0 0 0 0 0 0 0 0 1 0 0 0 0 0 0 0 0 1 0 0 0 0 0 0 0 0 1" in="SourceAlpha" result="extrude"></feConvolveMatrix><feComposite in="color1" in2="extrude" result="comp-extrude" operator="in"></feComposite><feOffset dx="4" dy="4" in="comp-extrude" result="offset-extrude"></feOffset><feMerge><feMergeNode in="offset-extrude"></feMergeNode><feMergeNode in="SourceGraphic"></feMergeNode></feMerge></filter></defs><g filter="url(#editing-extrusion)"><g transform="translate(15.920885682106018, 97.46500015258789)"><path d="M34.50-13.25L34.50-13.25L34.50-13.25Q36.16-12.03 36.16-9.44L36.16-9.44L36.16-9.44Q36.16-6.85 35.04-5.02L35.04-5.02L35.04-5.02Q33.92-3.20 31.74-1.79L31.74-1.79L31.74-1.79Q27.07 1.22 18.91 1.22L18.91 1.22L18.91 1.22Q10.75 1.22 6.30-3.04L6.30-3.04L6.30-3.04Q1.86-7.30 1.86-14.85L1.86-14.85L1.86-14.85Q1.86-25.54 7.42-33.66L7.42-33.66L7.42-33.66Q11.65-39.68 19.20-42.24L19.20-42.24L19.20-42.24Q23.10-43.52 26.94-43.52L26.94-43.52L26.94-43.52Q30.78-43.52 33.15-43.01L33.15-43.01L33.15-43.01Q35.52-42.50 37.31-41.47L37.31-41.47L37.31-41.47Q41.22-39.23 41.22-35.65L41.22-35.65L41.22-35.65Q41.22-32.38 38.14-29.95L38.14-29.95L38.14-29.95Q35.33-27.78 33.02-27.78L33.02-27.78L33.02-27.78Q30.72-27.78 29.76-28.10L29.76-28.10L29.76-28.10Q30.02-30.40 30.02-31.90L30.02-31.90L30.02-31.90Q30.02-33.41 29.95-34.50L29.95-34.50L29.95-34.50Q29.89-35.58 29.57-36.61L29.57-36.61L29.57-36.61Q28.93-38.98 26.98-38.98L26.98-38.98L26.98-38.98Q25.02-38.98 23.07-37.15L23.07-37.15L23.07-37.15Q21.12-35.33 19.46-32.26L19.46-32.26L19.46-32.26Q15.68-25.28 15.68-17.02L15.68-17.02L15.68-17.02Q15.68-13.06 17.92-10.78L17.92-10.78L17.92-10.78Q20.16-8.51 24.96-8.51L24.96-8.51L24.96-8.51Q28.54-8.51 31.94-10.88L31.94-10.88L31.94-10.88Q33.41-11.90 34.50-13.25ZM54.59 0L40.90 0L48.70-42.05L48.70-42.05Q55.04-42.75 64.29-42.75L64.29-42.75L64.29-42.75Q73.54-42.75 77.82-40.06L77.82-40.06L77.82-40.06Q82.11-37.38 82.11-31.97L82.11-31.97L82.11-31.97Q82.11-26.56 79.33-23.17L79.33-23.17L79.33-23.17Q76.54-19.78 71.74-18.69L71.74-18.69L71.74-18.69Q72.83-13.38 75.33-9.09L75.33-9.09L75.33-9.09Q77.63-5.06 80.32-3.78L80.32-3.78L80.32-3.78Q79.36-1.09 77.41 0.10L77.41 0.10L77.41 0.10Q75.46 1.28 72.67 1.28L72.67 1.28L72.67 1.28Q69.89 1.28 67.71-0.35L67.71-0.35L67.71-0.35Q65.54-1.98 63.81-4.99L63.81-4.99L63.81-4.99Q60.16-11.52 59.78-21.82L59.78-21.82L60.22-21.82L60.22-21.82Q64.96-21.95 67.33-24.42L67.33-24.42L67.33-24.42Q69.70-26.88 69.70-32.06L69.70-32.06L69.70-32.06Q69.70-38.53 64.26-38.78L64.26-38.78L62.85-38.78L62.85-38.78Q62.27-38.78 61.95-38.72L61.95-38.72L54.59 0ZM86.27-9.47L86.27-9.47L86.27-9.47Q86.27-11.97 86.91-15.17L86.91-15.17L92.10-42.24L106.24-42.24L101.12-14.98L101.12-14.98Q100.54-11.97 100.54-9.76L100.54-9.76L100.54-9.76Q100.54-7.55 101.47-6.40L101.47-6.40L101.47-6.40Q102.40-5.25 104.13-5.25L104.13-5.25L104.13-5.25Q105.86-5.25 106.94-5.70L106.94-5.70L106.94-5.70Q108.03-6.14 108.93-7.23L108.93-7.23L108.93-7.23Q110.66-9.41 111.74-14.98L111.74-14.98L116.93-42.24L126.59-42.24L121.47-15.04L121.47-15.04Q119.68-5.95 114.75-2.30L114.75-2.30L114.75-2.30Q109.95 1.28 100.48 1.28L100.48 1.28L100.48 1.28Q93.38 1.28 89.60-1.79L89.60-1.79L89.60-1.79Q86.27-4.48 86.27-9.47ZM169.41-26.56L169.41-26.56L169.41-26.56Q169.41 0.70 139.84 0.70L139.84 0.70L139.84 0.70Q135.10 0.70 127.30-0.45L127.30-0.45L134.46-38.27L134.46-38.27Q134.98-40.83 135.30-42.30L135.30-42.30L135.30-42.30Q145.02-43.01 149.34-43.01L149.34-43.01L149.34-43.01Q153.66-43.01 157.63-42.11L157.63-42.11L157.63-42.11Q161.60-41.22 164.22-39.23L164.22-39.23L164.22-39.23Q169.41-35.33 169.41-26.56ZM156.22-28.93L156.22-28.93L156.22-28.93Q156.22-38.46 149.38-38.46L149.38-38.46L148.74-38.46L148.74-38.46Q148.42-38.46 148.10-38.40L148.10-38.40L141.50-4.03L141.50-4.03Q141.76-3.90 142.02-3.90L142.02-3.90L142.53-3.90L142.53-3.90Q144.90-3.90 147.36-5.38L147.36-5.38L147.36-5.38Q149.82-6.85 151.74-9.86L151.74-9.86L151.74-9.86Q156.22-16.83 156.22-28.93ZM213.18-9.86L213.18-9.86L213.18-9.86Q214.40-8.32 214.40-5.82L214.40-5.82L214.40-5.82Q214.40-2.37 211.84-0.54L211.84-0.54L211.84-0.54Q209.28 1.28 205.25 1.28L205.25 1.28L205.25 1.28Q202.94 1.28 199.42 0.77L199.42 0.77L199.42 0.77Q192.51-0.32 190.40-0.32L190.40-0.32L190.40-0.32Q188.29-0.32 187.46-0.22L187.46-0.22L187.46-0.22Q186.62-0.13 185.28 0L185.28 0L193.15-42.24L220.74-42.24L220.74-42.24Q220.74-38.34 218.85-36.29L218.85-36.29L218.85-36.29Q216.96-34.24 213.25-34.24L213.25-34.24L213.25-34.24Q209.54-34.24 205.76-35.97L205.76-35.97L203.78-24.77L215.17-24.77L215.17-24.77Q215.17-21.38 213.50-19.49L213.50-19.49L213.50-19.49Q211.84-17.60 209.06-17.60L209.06-17.60L209.06-17.60Q206.27-17.60 204.54-18.24L204.54-18.24L204.54-18.24Q202.82-18.88 202.62-19.07L202.62-19.07L200.32-6.98L200.32-6.98Q201.86-6.78 204.74-6.78L204.74-6.78L204.74-6.78Q209.66-6.78 213.18-9.86ZM226.88 0L219.84 0L227.52-42.24L241.28-42.24L251.26-13.18L256.58-42.24L263.68-42.18L255.87 0L241.22 0L232-27.97L226.88 0ZM291.58 0L277.89 0L285.70-42.05L285.70-42.05Q292.03-42.75 301.28-42.75L301.28-42.75L301.28-42.75Q310.53-42.75 314.82-40.06L314.82-40.06L314.82-40.06Q319.10-37.38 319.10-31.97L319.10-31.97L319.10-31.97Q319.10-26.56 316.32-23.17L316.32-23.17L316.32-23.17Q313.54-19.78 308.74-18.69L308.74-18.69L308.74-18.69Q309.82-13.38 312.32-9.09L312.32-9.09L312.32-9.09Q314.62-5.06 317.31-3.78L317.31-3.78L317.31-3.78Q316.35-1.09 314.40 0.10L314.40 0.10L314.40 0.10Q312.45 1.28 309.66 1.28L309.66 1.28L309.66 1.28Q306.88 1.28 304.70-0.35L304.70-0.35L304.70-0.35Q302.53-1.98 300.80-4.99L300.80-4.99L300.80-4.99Q297.15-11.52 296.77-21.82L296.77-21.82L297.22-21.82L297.22-21.82Q301.95-21.95 304.32-24.42L304.32-24.42L304.32-24.42Q306.69-26.88 306.69-32.06L306.69-32.06L306.69-32.06Q306.69-38.53 301.25-38.78L301.25-38.78L299.84-38.78L299.84-38.78Q299.26-38.78 298.94-38.72L298.94-38.72L291.58 0ZM349.38-9.86L349.38-9.86L349.38-9.86Q350.59-8.32 350.59-5.82L350.59-5.82L350.59-5.82Q350.59-2.37 348.03-0.54L348.03-0.54L348.03-0.54Q345.47 1.28 341.44 1.28L341.44 1.28L341.44 1.28Q339.14 1.28 335.62 0.77L335.62 0.77L335.62 0.77Q328.70-0.32 326.59-0.32L326.59-0.32L326.59-0.32Q324.48-0.32 323.65-0.22L323.65-0.22L323.65-0.22Q322.82-0.13 321.47 0L321.47 0L329.34-42.24L356.93-42.24L356.93-42.24Q356.93-38.34 355.04-36.29L355.04-36.29L355.04-36.29Q353.15-34.24 349.44-34.24L349.44-34.24L349.44-34.24Q345.73-34.24 341.95-35.97L341.95-35.97L339.97-24.77L351.36-24.77L351.36-24.77Q351.36-21.38 349.70-19.49L349.70-19.49L349.70-19.49Q348.03-17.60 345.25-17.60L345.25-17.60L345.25-17.60Q342.46-17.60 340.74-18.24L340.74-18.24L340.74-18.24Q339.01-18.88 338.82-19.07L338.82-19.07L336.51-6.98L336.51-6.98Q338.05-6.78 340.93-6.78L340.93-6.78L340.93-6.78Q345.86-6.78 349.38-9.86ZM384.58 1.28L384.58 1.28L384.58 1.28Q376.38 1.28 375.62-10.37L375.62-10.37L364.61-10.37L364.61-10.37Q363.33-7.42 362.43-4.86L362.43-4.86L360.77 0L351.81 0L371.97-42.24L385.73-42.24L388.42-11.14L388.42-11.14Q389.06-4.42 391.62-2.43L391.62-2.43L391.62-2.43Q389.76 1.28 384.58 1.28ZM370.11-23.17L366.59-15.04L375.42-15.04L374.66-31.49L374.66-33.22L370.11-23.17ZM428.03-13.25L428.03-13.25L428.03-13.25Q429.70-12.03 429.70-9.44L429.70-9.44L429.70-9.44Q429.70-6.85 428.58-5.02L428.58-5.02L428.58-5.02Q427.46-3.20 425.28-1.79L425.28-1.79L425.28-1.79Q420.61 1.22 412.45 1.22L412.45 1.22L412.45 1.22Q404.29 1.22 399.84-3.04L399.84-3.04L399.84-3.04Q395.39-7.30 395.39-14.85L395.39-14.85L395.39-14.85Q395.39-25.54 400.96-33.66L400.96-33.66L400.96-33.66Q405.18-39.68 412.74-42.24L412.74-42.24L412.74-42.24Q416.64-43.52 420.48-43.52L420.48-43.52L420.48-43.52Q424.32-43.52 426.69-43.01L426.69-43.01L426.69-43.01Q429.06-42.50 430.85-41.47L430.85-41.47L430.85-41.47Q434.75-39.23 434.75-35.65L434.75-35.65L434.75-35.65Q434.75-32.38 431.68-29.95L431.68-29.95L431.68-29.95Q428.86-27.78 426.56-27.78L426.56-27.78L426.56-27.78Q424.26-27.78 423.30-28.10L423.30-28.10L423.30-28.10Q423.55-30.40 423.55-31.90L423.55-31.90L423.55-31.90Q423.55-33.41 423.49-34.50L423.49-34.50L423.49-34.50Q423.42-35.58 423.10-36.61L423.10-36.61L423.10-36.61Q422.46-38.98 420.51-38.98L420.51-38.98L420.51-38.98Q418.56-38.98 416.61-37.15L416.61-37.15L416.61-37.15Q414.66-35.33 412.99-32.26L412.99-32.26L412.99-32.26Q409.22-25.28 409.22-17.02L409.22-17.02L409.22-17.02Q409.22-13.06 411.46-10.78L411.46-10.78L411.46-10.78Q413.70-8.51 418.50-8.51L418.50-8.51L418.50-8.51Q422.08-8.51 425.47-10.88L425.47-10.88L425.47-10.88Q426.94-11.90 428.03-13.25ZM440.13-31.17L440.13-31.17L440.13-31.17Q437.95-32.83 437.95-36.38L437.95-36.38L437.95-36.38Q437.95-39.94 440.29-41.79L440.29-41.79L440.29-41.79Q442.62-43.65 446.66-43.65L446.66-43.65L446.66-43.65Q449.22-43.65 455.30-42.75L455.30-42.75L459.65-42.11L459.65-42.11Q461.82-41.86 464.10-41.86L464.10-41.86L464.10-41.86Q466.37-41.86 467.90-42.82L467.90-42.82L467.90-42.82Q470.21-40.77 470.21-37.82L470.21-37.82L470.21-37.82Q470.21-34.88 467.58-32.77L467.58-32.77L467.58-32.77Q464.90-30.53 461.44-30.53L461.44-30.53L461.44-30.53Q459.78-30.53 457.09-30.98L457.09-30.98L457.09-30.98Q453.95-21.12 453.95-14.27L453.95-14.27L453.95-14.27Q453.95-7.42 457.41-3.84L457.41-3.84L457.41-3.84Q455.81-0.96 453.44 0.16L453.44 0.16L453.44 0.16Q451.07 1.28 447.52 1.28L447.52 1.28L447.52 1.28Q443.97 1.28 441.76-0.67L441.76-0.67L441.76-0.67Q439.55-2.62 439.55-6.66L439.55-6.66L439.55-6.66Q439.55-11.33 442.11-19.01L442.11-19.01L442.11-19.01Q444.67-26.62 448.51-32.45L448.51-32.45L448.51-32.45Q446.66-32.64 444.74-32.64L444.74-32.64L444.74-32.64Q440.77-32.64 440.13-31.17Z" fill="#ccc"></path></g></g><style>text {
  font-size: 64px;
  font-family: Arial Black;
  dominant-baseline: central;
  text-anchor: middle;
}</style></svg>